<?xml version="1.0" encoding="utf-8"?>
<!-- Generator: Adobe Illustrator 24.0.3, SVG Export Plug-In . SVG Version: 6.00 Build 0)  -->
<svg version="1.1" xmlns="http://www.w3.org/2000/svg" xmlns:xlink="http://www.w3.org/1999/xlink" x="0px" y="0px"
	 viewBox="0 0 220 150" style="enable-background:new 0 0 220 150;" xml:space="preserve">
<style type="text/css">
	.st0{fill:none;}
	.st1{clip-path:url(#SVGID_2_);}
	.st2{clip-path:url(#SVGID_4_);}
	.st3{fill:#FFFFFF;}
</style>
<g id="Ebene_1">
	<g id="BMW_Group">
		<g>
			<defs>
				<rect id="SVGID_1_" x="53.2" y="48" width="113.6" height="54.1"/>
			</defs>
			<clipPath id="SVGID_2_">
				<use xlink:href="#SVGID_1_"  style="overflow:visible;"/>
			</clipPath>
			<path class="st1" d="M152.4,81.4h5.1c1.2,0,2.2,0.3,2.9,0.9c0.7,0.6,1.1,1.5,1.1,2.6c0,1.1-0.4,2-1.2,2.7c-0.7,0.6-1.7,1-2.9,1
				h-5L152.4,81.4L152.4,81.4z M152.4,101.5v-8.7h5.5c2.6,0,4.8-0.7,6.4-2c1.7-1.4,2.5-3.3,2.5-5.7c0-2.4-0.7-4.2-2.2-5.6
				c-1.5-1.4-3.5-2-6-2h-11.3v24.2L152.4,101.5L152.4,101.5z M124.3,92c0,3,0.8,5.4,2.4,7.2c1.7,1.9,4.3,2.8,7.7,2.8
				c3.3,0,5.9-0.9,7.6-2.6c1.8-1.8,2.6-4.2,2.6-7.4V77.3h-5.2v15.1c0,3.5-1.6,5.3-4.9,5.3c-3.3,0-5-1.8-5-5.3V77.3h-5.2L124.3,92
				L124.3,92z M115.4,83.3c1.1,1.5,1.7,3.5,1.7,6.1c0,2.8-0.7,4.9-2,6.4c-1.1,1.3-2.6,1.9-4.4,1.9c-2,0-3.6-0.8-4.8-2.3
				c-1.1-1.5-1.7-3.5-1.7-6c0-2.6,0.6-4.6,1.7-6.1c1.2-1.5,2.7-2.3,4.7-2.3C112.6,81,114.2,81.8,115.4,83.3 M101.9,80.1
				c-2.1,2.2-3.1,5.3-3.1,9.3c0,4.3,1.2,7.6,3.7,9.8c2.1,1.9,4.7,2.8,8.1,2.8c3.7,0,6.6-1.1,8.7-3.4c2.1-2.2,3.1-5.3,3.1-9.2
				c0-4-1-7.1-3.1-9.3c-2.1-2.3-4.9-3.4-8.6-3.4C107,76.7,104,77.8,101.9,80.1 M83.1,81.4h5c1.4,0,2.4,0.3,3.1,0.7
				c0.7,0.5,1,1.3,1,2.5c0,2.2-1.4,3.4-4.1,3.4h-5C83.1,88,83.1,81.4,83.1,81.4z M83.1,101.5V92h5.2l4.4,9.4h5.9l-5.2-10.3
				c2.8-1.3,4.3-3.5,4.3-6.5c0-2.1-0.5-3.8-1.6-5c-1.4-1.6-3.6-2.4-6.5-2.4H77.8v24.2H83.1z M72.9,79.7c-1.7-2-4.4-3-8-3
				c-3.7,0-6.6,1.2-8.7,3.5c-2.1,2.3-3.1,5.4-3.1,9.4c0,4.4,1.2,7.8,3.7,9.9c1.9,1.7,4.3,2.5,7.2,2.5c3.2,0,5.7-1,7.3-3l0.5,2.4h3.3
				V88.7h-9v3.8h3.9v1.1c0,1.2-0.5,2.3-1.6,3c-1,0.7-2.3,1.1-3.8,1.1c-2,0-3.6-0.7-4.7-2.1c-1.1-1.4-1.6-3.4-1.6-6
				c0-2.7,0.5-4.8,1.6-6.3c1.1-1.5,2.7-2.3,4.7-2.3c2.8,0,4.7,1.5,5.6,4.4l4.9-1.2C74.7,82.4,73.9,80.9,72.9,79.7"/>
		</g>
		<g>
			<defs>
				<rect id="SVGID_3_" x="53.2" y="48" width="113.6" height="54.1"/>
			</defs>
			<clipPath id="SVGID_4_">
				<use xlink:href="#SVGID_3_"  style="overflow:visible;"/>
			</clipPath>
			<path class="st2" d="M116.4,72.1l4.5-17.1l4.3,17.1h5.7l5.9-24.2h-5.3l-3.6,17.4l-4.1-17.4h-5.2l-4.3,17.4L110.6,48h-5.4
				l5.5,24.2H116.4z M82,72.1V54.9l5.7,17.2H92l5.7-17.2v17.2h4.9V48h-6.8l-5.8,18L84,48h-7v24.2L82,72.1L82,72.1z M59.2,52.1h5.5
				c1.1,0,1.9,0.1,2.5,0.4c0.9,0.4,1.4,1.2,1.4,2.3c0,0.9-0.3,1.6-0.9,2.1c-0.6,0.4-1.6,0.7-2.9,0.7h-5.5V52.1z M59.2,61.6h5.4
				c1.4,0,2.5,0.2,3.2,0.5c0.9,0.5,1.4,1.4,1.4,2.7c0,1.1-0.3,1.9-0.9,2.4c-0.7,0.6-2,0.9-3.7,0.9h-5.5V61.6z M64.5,72.1
				c6.6,0,10-2.4,10-7.3c0-2.7-1.3-4.6-3.9-5.6c2.1-1,3.1-2.7,3.1-5.2c0-2.1-0.9-3.8-2.5-4.8C69.8,48.4,68,48,65.7,48H54v24.2
				L64.5,72.1L64.5,72.1z"/>
		</g>
	</g>
	<rect x="0" y="15" class="st0" width="220" height="150"/>
</g>
<g id="Hilfslinien">
</g>
</svg>
