<svg xmlns="http://www.w3.org/2000/svg" viewBox="0 0 157 126"><defs><style>.cls-1{fill:#fff;stroke:#fff;stroke-miterlimit:10;}.cls-2{fill:#5b666d;}.cls-3{fill:#dc363a;}</style></defs><title>crossmatch_logo</title><g id="Calque_1" data-name="Calque 1"><polygon class="cls-1" points="156.5 0.79 156.5 125.5 0.5 125.5 0.5 0.5 156.5 0.79"/><g id="crossmatch"><path class="cls-2" d="M15.47,30.86c-.2,1.42-1.21,4.76-7,4.76-3.85,0-6.89-2.13-7-6.58v-.31c.1-3.54,2.33-6.17,7.19-6.17,5.57,0,6.38,3.64,6.58,4.35H12.84c-.1-.5-1.11-2.23-3.95-2.23C5.45,24.68,4,26.61,4,29.24c0,2.84,2,4.35,4.66,4.35,2.83,0,4.15-1.72,4.35-2.73Zm9.32-2.43c1.92,0,2.93-.3,2.93-1.72s-1-1.82-2.93-1.82H20v3.54ZM17.6,22.86h7.49c2.94,0,5.06.71,5.06,3.75a3.46,3.46,0,0,1-3.44,3.64l3.85,5.07h-3l-3.64-4.86H20v4.86H17.6Zm39.69,3.85C57,25.6,56,24.58,52.93,24.58c-1.62,0-3.24.41-3.24,1.62,0,.51.31,1,2.74,1.32l2.93.51c2.84.4,4.46,1.51,4.46,3.54,0,2.94-2.84,4-6.08,4-5.36,0-6.68-2.63-7-3.54l2.33-.71c.5.91,1.41,2.22,4.65,2.22,2,0,3.65-.7,3.65-1.72,0-.81-.91-1.41-2.73-1.62l-2.94-.4c-2.84-.41-4.46-1.62-4.46-3.55,0-3.74,4.86-3.74,5.78-3.74,5.36,0,6.27,2.53,6.58,3.34Zm14.27,0c-.4-1.11-1.41-2.13-4.35-2.13C65.59,24.58,64,25,64,26.2c0,.51.3,1,2.73,1.32l2.94.51c2.84.4,4.46,1.51,4.46,3.54,0,2.94-2.84,4-6.18,4-5.27,0-6.58-2.63-6.89-3.54l2.33-.71c.51.91,1.42,2.22,4.66,2.22,2,0,3.65-.7,3.65-1.72,0-.81-.92-1.41-2.74-1.62L66,29.85c-2.94-.41-4.46-1.62-4.46-3.55,0-3.74,4.76-3.74,5.77-3.74,5.37,0,6.28,2.53,6.58,3.34Zm6.69-.81h0v9.42H76.12V22.86h3.24l3.85,9.22,4.05-9.22H90.4V35.32H88.27V25.9h-.1l-4,9.42H82.3ZM102,30.35l-2.53-5.46-2.63,5.46Zm-4-7.49h2.74l6.07,12.46h-2.53l-1.32-2.84H95.86l-1.31,2.84H91.92ZM110.75,25h-5.57V22.86h13.57V25h-5.57V35.32h-2.43Zm22.17,5.87c-.2,1.42-1.21,4.76-6.88,4.76-4,0-7.09-2.13-7.09-6.68,0-3.65,2.23-6.38,7.19-6.38,5.57,0,6.38,3.64,6.58,4.35h-2.43c-.1-.5-1.11-2.23-3.95-2.23-3.44,0-4.86,1.93-4.86,4.56,0,2.84,2,4.35,4.66,4.35,2.83,0,4.15-1.72,4.35-2.73Zm2.13-8h2.43v5h8.4v-5h2.43V35.32h-2.43V30h-8.4v5.37h-2.43ZM38.86,24.58a4.51,4.51,0,1,0,4.56,4.56A4.55,4.55,0,0,0,38.86,24.58Zm0,11.34a6.84,6.84,0,1,1,6.78-6.78A6.77,6.77,0,0,1,38.86,35.92ZM151.05,23.17h-1v-.31h2.23v.31h-.91v2.22h-.3Zm3.94-.31h.51v2.53h-.3V23.27h0l-1,2.12h-.3l-.91-2h0v2h-.41V22.86h.51l1,2Z"/><path class="cls-3" d="M45.75,42.61H32V38.15H45.75ZM74.91,7.07c10.32,0,18.73,6,19.74,13.56a7.67,7.67,0,0,0,.1-1.51c0-8.31-8.91-15-19.84-15h0c-11,0-19.85,6.68-19.85,15a7.67,7.67,0,0,0,.1,1.51C56.07,13,64.58,7.07,74.91,7.07Zm0,5.36c6,0,10.93,3.45,11.74,7.8a6.33,6.33,0,0,0,.1-1.32c0-5-5.26-9-11.84-9s-11.85,4-11.85,9a6.33,6.33,0,0,0,.1,1.32C64,15.88,68.93,12.43,74.91,12.43Z"/></g></g></svg>