<?xml version="1.0" encoding="utf-8"?>
<!-- Generator: Adobe Illustrator 24.0.3, SVG Export Plug-In . SVG Version: 6.00 Build 0)  -->
<svg version="1.1" xmlns="http://www.w3.org/2000/svg" xmlns:xlink="http://www.w3.org/1999/xlink" x="0px" y="0px"
	 viewBox="0 0 220 150" style="enable-background:new 0 0 220 150;" xml:space="preserve">
<style type="text/css">
	.st0{display:none;}
	.st1{display:inline;}
	.st2{fill:none;}
	.st3{clip-path:url(#SVGID_2_);}
	.st4{clip-path:url(#SVGID_4_);}
	.st5{fill:#FFFFFF;}
</style>
<g id="Logos">
	<g id="Marc_OPolo" class="st0">
		<path class="st1" d="M88.2,83c-4.3,0-5.3-3.4-5.3-5.5c0-2.1,1.5-5.4,5.2-5.4c1,0,2.9,0.3,3.7,1.1c0.1,0.1,0.1,0.2,0.1,0.2
			c0,0.1-0.1,0.1-0.2,0.1c-0.8,0-2,0.3-2,1.6c0,0.8,0.9,1.6,1.9,1.6c1.4,0,2-1.2,2-2.2c0-0.6-0.2-1.1-0.6-1.6c-1-1.3-3.3-2-5.2-2
			c-4.5,0-8.7,3.3-8.7,6.8c0,3.5,3.4,6.6,8.3,6.6c3.5,0,5.4-1.1,7-3.1l-1-0.6C92.3,82,90.7,83,88.2,83"/>
		<path class="st1" d="M35.8,81.1c0,0-0.1-0.2-0.1-6.3c0-5.9,0-5.9,0-5.9c0.1-1.7-0.1-2,3.7-2v-1h-8.8l-5.9,13.2h-0.1L19.2,66H10v1
			c4,0,3.7,0.2,3.8,2c0,0,0,0.5,0,5.3c0,4.8,0,5.4,0,5.4c-0.1,3-1,3.6-3.8,3.6v1h8.9v-1C16,83,15.5,82.4,15.5,80V67.1h0.6l7.4,17.6
			h0.7L31.9,67h0.5v14.5c0,1.5-0.2,1.7-3.6,1.7v1h10.8v-1C36.1,83.1,35.8,82.9,35.8,81.1"/>
		<path class="st1" d="M118.6,65.4c-7.6,0-11.9,5.2-11.9,9.6c0,4.4,4.3,9.6,11.9,9.6c7.6,0,11.9-5.2,11.9-9.6
			C130.5,70.6,126.3,65.4,118.6,65.4 M118.6,83.7c-5.8,0-7.7-4.6-7.7-8.6c0-4,1.9-8.6,7.7-8.6c5.8,0,7.7,4.6,7.7,8.6
			C126.3,79.1,124.5,83.7,118.6,83.7"/>
		<path class="st1" d="M152.8,66h-12.2v1c3.5,0,3.5,0.3,3.7,2.2c0,0,0,0.6,0,5.6c0,5,0,5.6,0,5.6c-0.1,2.4-0.3,2.7-3.7,2.7v1h11v-1
			c-3.9-0.1-3.9-0.1-3.9-2.7v-4.6h4.3c4.5,0,10.9-0.6,10.9-4.8C163,67.2,158.6,66,152.8,66 M147.7,74.6v-6c0-1.4,0.9-1.6,4.6-1.6
			c4.3,0,6.7,1.2,6.7,3.6C158.9,73.9,156.8,74.7,147.7,74.6"/>
		<path class="st1" d="M201.7,71c-5.1,0-8.3,3.4-8.3,6.7c0,3.3,3.2,6.7,8.3,6.7c5.1,0,8.3-3.4,8.3-6.7C210,74.4,206.8,71,201.7,71
			 M201.7,83.4c-3.5,0-5-3-5-5.7s1.4-5.7,5-5.7c3.5,0,5,3,5,5.7C206.7,80.4,205.3,83.4,201.7,83.4"/>
		<path class="st1" d="M74.5,71c-0.2,0-0.3,0-0.5,0c-0.3,0-0.6,0-0.9,0.1c0,0,0,0,0,0c-2.8,0.4-4.4,2.4-5.3,4.7h-0.1V71l-5.9,0.3
			v0.9c2.8,0.1,2.8,0.3,2.8,2.7c0,0,0,0.7,0,3.5c0,2.8,0,3.4,0,3.4c0,1.3-0.3,1.5-2.8,1.5v0.9h9v-0.9c-3.2,0-3.1-0.2-3.1-2.1
			c0-4,2.7-9.1,6-9c0.2,0,0.6,0,0.6,0.1c0,0,0,0,0,0.1c-0.1,0.3-1.1,0.5-1.1,1.7c0,1.1,1.2,1.5,1.9,1.5c1.3,0,1.9-1.2,2-1.8
			C77.2,72.5,76.5,71.3,74.5,71"/>
		<path class="st1" d="M135,65.3c-0.9,0-1.8,0.7-1.8,1.5c0,1.8,2.1,1.7,2.1,2c0,0.9-0.8,1.7-2.1,2.7l0.9,0.5
			c1.5-1.1,3.3-2.5,3.3-4.6C137.4,66.2,136.5,65.3,135,65.3"/>
		<path class="st1" d="M171.9,71c-5.1,0-8.3,3.4-8.3,6.7s3.2,6.7,8.3,6.7c5.1,0,8.3-3.4,8.3-6.7C180.1,74.4,177,71,171.9,71
			 M171.9,83.4c-3.5,0-5-3-5-5.7c0-2.7,1.4-5.7,5-5.7c3.5,0,4.8,3,4.8,5.7C176.7,80.4,175.4,83.4,171.9,83.4"/>
		<path class="st1" d="M188.4,81.4V65.5l-6.4,0.4v1c2.8,0.1,3.3,0.3,3.3,1.8c0,0,0.1,0.6,0.1,6.2c0,5.6-0.1,6.3-0.1,6.3
			c0,1.7-0.4,2-2.9,2v1h8.8v-1C188.8,83.2,188.4,82.7,188.4,81.4"/>
		<path class="st1" d="M59,82.4c-0.1,0.1-0.5,0.6-1.2,0.6c-1.1,0-1.3-0.8-1.3-2.1v-6c0-3.5-3.9-3.9-6.8-3.9c-0.7,0-1.5,0.1-2.2,0.2
			c-0.7,0.1-1.3,0.2-1.9,0.4c0,0,0,0,0,0c0,0,0,0,0,0c-1.5,0.5-2.5,1.6-2.5,2.8c0,0.9,0.8,1.8,1.8,1.8c1.1,0,2-0.7,2-1.6
			c0-0.8-0.5-1.4-1.4-1.7c0.1-0.1,0.7-0.4,1.3-0.5c0.8-0.2,2-0.2,2.6-0.2c2.8,0,4,1,4.1,3.1c0,1,0,1.1,0,1.1
			c-4.2,1-11.2,0.9-11.3,4.8c0,1.8,1.9,3.3,4.5,3.3c3.3,0,5.2-1.1,6.7-3h0.1c0.1,1.6,1.2,3,3.2,3c2.2,0,2.9-1.2,3-1.3L59,82.4
			 M53.5,78.5c-0.1,2.3-2.2,4.5-5.4,4.5c-1.2,0-2.4-0.7-2.5-1.7c-0.3-3.1,5.4-3.5,7.9-4C53.5,77.4,53.5,77.3,53.5,78.5"/>
	</g>
	<rect class="st2" width="220" height="150"/>
	<path id="MINI" d="M92.7,82.9H90V69.1h4l3.5,11.1l3.5-11.1h4V83h-2.8V72.7L99.1,83h-3l-3.3-10.4V82.9z M111.1,82.9h-2.9V69.1h2.9
		V82.9z M117.1,82.9h-2.8V69.1h3.4l5.5,10.1V69.1h2.8V83h-3.4l-5.5-10V82.9z M132,82.9h-2.9V69.1h2.9V82.9z M152.5,88.1h-13.2
		c0.7-1.6,1.3-3.4,1.7-5.1h16.6l4.4-4.4h-20.3c0.1-0.8,0.1-1.7,0.1-2.6c0-0.9,0-1.7-0.1-2.6h25.5l4.4-4.4h-30.5
		c-0.4-1.8-1-3.5-1.7-5.1h37.3l4.4-4.4h-44.1c-5.5-8.6-15-14.3-25.9-14.3c-10.9,0-20.5,5.7-25.9,14.3H41l4.4,4.4h37.3
		c-0.7,1.6-1.3,3.4-1.7,5.1H50.5l4.4,4.4h25.5c-0.1,0.8-0.1,1.7-0.1,2.6c0,0.9,0,1.7,0.1,2.6H60l4.4,4.4h16.6c0.4,1.8,1,3.5,1.7,5.1
		H69.5l4.4,4.4h11.1c5.5,8.6,15,14.3,25.9,14.3c10.9,0,20.5-5.7,25.9-14.3h11.1L152.5,88.1z M111,102.4c-14.5,0-26.4-11.8-26.4-26.4
		S96.5,49.6,111,49.6s26.4,11.8,26.4,26.4C137.4,90.5,125.5,102.4,111,102.4"/>
</g>
<g id="Hilfslinien">
</g>
</svg>
